<mxfile host="app.diagrams.net" modified="2023-07-18T06:32:39.089Z" agent="Mozilla/5.0 (Windows NT 10.0; Win64; x64) AppleWebKit/537.36 (KHTML, like Gecko) Chrome/114.0.0.0 Safari/537.36 Edg/114.0.1823.82" version="21.6.1" etag="64cEKTQt9rO-aPfXxO_b" type="github">
  <diagram name="페이지-1" id="LHaw69tS89G596CnoErw">
    <mxGraphModel>
      <root>
        <mxCell id="0" />
        <mxCell id="1" parent="0" />
      </root>
    </mxGraphModel>
  </diagram>
</mxfile>
